<svg xmlns="http://www.w3.org/2000/svg" width="106" height="41" fill="none"><path fill="#000" fill-rule="evenodd" d="M48.63 22.67q.33-1.08.33-2.4 0-1.79-.59-3.11-.36-.81-.95-1.39-.36-.37-.82-.65-1.18-.73-2.96-.73-1.82 0-3.01.73-.5.31-.89.72-.54.56-.88 1.33-.59 1.32-.59 3.08 0 1.32.33 2.41t.99 1.87q.14.17.3.32.58.55 1.37.88 1 .42 2.37.42 1.34 0 2.34-.42.78-.33 1.35-.87.17-.16.31-.33.67-.78 1-1.86Zm-14.58.73q.72-1.3.72-3.23 0-1.83-.7-3.08-.35-.6-.83-1.06-.5-.49-1.17-.82-1.29-.64-3.06-.64H25.5V26h3.17q1.93 0 3.29-.66.77-.37 1.34-.94.44-.44.75-1Zm18.97-8.83V26h6.72v-1.6h-4.85v-9.83h-1.87Zm10.29 0V26h6.73v-1.6h-4.85v-9.83h-1.88Zm16.24 0-2.71 5.21-2.69-5.21h-2.04l3.8 7.06V26h1.87v-4.44l3.79-6.99h-2.02ZM40.6 22.55q-.36-.96-.36-2.28 0-1.34.36-2.29.29-.77.83-1.25.14-.12.29-.23.75-.51 1.92-.51 1.33 0 2.11.65.25.21.44.48.8 1.14.8 3.15 0 1.32-.35 2.28-.29.81-.85 1.3-.12.1-.24.19-.74.52-1.92.52t-1.92-.52l-.24-.18q-.57-.5-.87-1.31Zm-8.23-4.63q.45.9.45 2.31 0 2.09-1.03 3.14l-.04.04q-1.02 1.01-3.05 1.01h-1.33v-8.29h1.6q1.25 0 2.11.44.33.17.59.41.43.38.7.94Z"/><path stroke="#000" stroke-width="2" d="M1 1h104v39H1z"/></svg>